# MagicaVoxel @ Ephtracy

# group
o 

# material
mtllib WheelyBase-2.mtl
usemtl palette

# normals
vn -1 0 0
vn 1 0 0
vn 0 0 1
vn 0 0 -1
vn 0 -1 0
vn 0 1 0

# texcoords
vt 0.978516 0.5
vt 0.982422 0.5
vt 0.986328 0.5

# verts
v -0.4 2.6 1
v -0.4 2.6 -0.9
v -0.4 2.9 0.7
v -0.4 2.9 -0.6
v -0.4 2.9 -0.8
v -0.4 3.5 0.7
v -0.4 3.5 -0.6
v -0.4 3.8 1
v -0.4 3.8 0.7
v -0.4 3.8 -0.8
v -0.4 3.8 -0.9
v 0.1 3.8 0.3
v 0.1 3.8 -0.2
v 0.1 3.9 0.3
v 0.1 3.9 -0.2
v 0.2 2.4 0.7
v 0.2 2.4 0.3
v 0.2 2.4 -0.2
v 0.2 2.4 -0.6
v 0.2 2.6 0.7
v 0.2 2.6 0.3
v 0.2 2.6 -0.2
v 0.2 2.6 -0.6
v 0.2 3.8 0.4
v 0.2 3.8 0.3
v 0.2 3.8 -0.2
v 0.2 3.8 -0.3
v 0.2 3.9 0.4
v 0.2 3.9 0.3
v 0.2 3.9 -0.2
v 0.2 3.9 -0.3
v 0.3 1.7 0.7
v 0.3 1.7 0.3
v 0.3 1.7 -0.2
v 0.3 1.7 -0.6
v 0.3 2.4 0.7
v 0.3 2.4 0.3
v 0.3 2.4 -0.2
v 0.3 2.4 -0.6
v 0.3 3.8 0.5
v 0.3 3.8 0.4
v 0.3 3.8 -0.3
v 0.3 3.8 -0.4
v 0.3 3.9 0.5
v 0.3 3.9 0.4
v 0.3 3.9 -0.3
v 0.3 3.9 -0.4
v 0.4 1.2 0.7
v 0.4 1.2 0.3
v 0.4 1.2 -0.2
v 0.4 1.2 -0.6
v 0.4 1.7 0.7
v 0.4 1.7 0.3
v 0.4 1.7 -0.2
v 0.4 1.7 -0.6
v 0.4 3.8 0.6
v 0.4 3.8 0.5
v 0.4 3.8 -0.4
v 0.4 3.8 -0.5
v 0.4 3.9 0.6
v 0.4 3.9 0.5
v 0.4 3.9 -0.4
v 0.4 3.9 -0.5
v 0.5 1 0.7
v 0.5 1 0.3
v 0.5 1 -0.2
v 0.5 1 -0.6
v 0.5 1.2 0.7
v 0.5 1.2 0.3
v 0.5 1.2 -0.2
v 0.5 1.2 -0.6
v 0.8 3.7 0.2
v 0.8 3.7 -0.1
v 0.8 3.8 0.2
v 0.8 3.8 -0.1
v 0.8 3.9 0.2
v 0.8 3.9 -0.1
v 1.5 2.7 0.9
v 1.5 2.7 0.7
v 1.5 2.7 -0.8
v 1.5 2.9 0.7
v 1.5 2.9 -0.6
v 1.5 3.5 0.7
v 1.5 3.5 -0.6
v 1.5 3.7 0.9
v 1.5 3.7 -0.6
v 1.5 3.7 -0.8
v -0.3 2.7 0.9
v -0.3 2.7 -0.8
v -0.3 2.9 0.7
v -0.3 2.9 -0.6
v -0.3 2.9 -0.8
v -0.3 3.5 0.9
v -0.3 3.5 0.7
v -0.3 3.5 -0.6
v -0.3 3.7 0.9
v -0.3 3.7 0.7
v -0.3 3.7 -0.8
v 0.5 3.7 0.2
v 0.5 3.7 -0.1
v 0.5 3.8 0.2
v 0.5 3.8 -0.1
v 0.5 3.9 0.2
v 0.5 3.9 -0.1
v 0.7 1 0.7
v 0.7 1 0.3
v 0.7 1 -0.2
v 0.7 1 -0.6
v 0.7 1.2 0.7
v 0.7 1.2 0.3
v 0.7 1.2 -0.2
v 0.7 1.2 -0.6
v 0.8 1.2 0.7
v 0.8 1.2 0.3
v 0.8 1.2 -0.2
v 0.8 1.2 -0.6
v 0.8 1.7 0.7
v 0.8 1.7 0.3
v 0.8 1.7 -0.2
v 0.8 1.7 -0.6
v 0.9 1.7 0.7
v 0.9 1.7 0.3
v 0.9 1.7 -0.2
v 0.9 1.7 -0.6
v 0.9 2.4 0.7
v 0.9 2.4 0.3
v 0.9 2.4 -0.2
v 0.9 2.4 -0.6
v 0.9 3.8 0.6
v 0.9 3.8 0.5
v 0.9 3.8 -0.4
v 0.9 3.8 -0.5
v 0.9 3.9 0.6
v 0.9 3.9 0.5
v 0.9 3.9 -0.4
v 0.9 3.9 -0.5
v 1 2.4 0.7
v 1 2.4 0.3
v 1 2.4 -0.2
v 1 2.4 -0.6
v 1 2.6 0.7
v 1 2.6 0.3
v 1 2.6 -0.2
v 1 2.6 -0.6
v 1 3.8 0.5
v 1 3.8 0.4
v 1 3.8 -0.3
v 1 3.8 -0.4
v 1 3.9 0.5
v 1 3.9 0.4
v 1 3.9 -0.3
v 1 3.9 -0.4
v 1.1 3.8 0.4
v 1.1 3.8 0.3
v 1.1 3.8 -0.2
v 1.1 3.8 -0.3
v 1.1 3.9 0.4
v 1.1 3.9 0.3
v 1.1 3.9 -0.2
v 1.1 3.9 -0.3
v 1.2 3.8 0.3
v 1.2 3.8 -0.2
v 1.2 3.9 0.3
v 1.2 3.9 -0.2
v 1.6 2.6 1
v 1.6 2.6 -0.9
v 1.6 2.7 1
v 1.6 2.7 0.7
v 1.6 2.9 0.7
v 1.6 2.9 -0.6
v 1.6 3.5 0.7
v 1.6 3.5 -0.6
v 1.6 3.8 1
v 1.6 3.8 -0.6
v 1.6 3.8 -0.9
v -0.4 2.6 1
v -0.4 3.8 1
v -0.3 3.5 1
v -0.3 3.8 1
v -0.2 2.9 1
v -0.2 3.5 1
v 1.1 2.8 1
v 1.1 2.9 1
v 1.2 2.7 1
v 1.2 2.8 1
v 1.2 2.9 1
v 1.3 2.9 1
v 1.3 3.5 1
v 1.6 2.6 1
v 1.6 2.7 1
v 1.6 3.8 1
v 0.2 2.4 0.7
v 0.2 2.6 0.7
v 0.3 1.7 0.7
v 0.3 2.4 0.7
v 0.4 1.2 0.7
v 0.4 1.7 0.7
v 0.4 1.8 0.7
v 0.4 2.6 0.7
v 0.5 1 0.7
v 0.5 1.2 0.7
v 0.5 1.4 0.7
v 0.5 1.8 0.7
v 0.6 1 0.7
v 0.6 1.4 0.7
v 0.7 1 0.7
v 0.7 1.2 0.7
v 0.7 2 0.7
v 0.8 1.2 0.7
v 0.8 1.7 0.7
v 0.8 2 0.7
v 0.8 2.6 0.7
v 0.9 1.7 0.7
v 0.9 2.4 0.7
v 1 2.4 0.7
v 1 2.6 0.7
v 0.4 3.8 0.6
v 0.4 3.9 0.6
v 0.9 3.8 0.6
v 0.9 3.9 0.6
v 0.3 3.8 0.5
v 0.3 3.9 0.5
v 0.4 3.8 0.5
v 0.4 3.9 0.5
v 0.9 3.8 0.5
v 0.9 3.9 0.5
v 1 3.8 0.5
v 1 3.9 0.5
v 0.2 3.8 0.4
v 0.2 3.9 0.4
v 0.3 3.8 0.4
v 0.3 3.9 0.4
v 1 3.8 0.4
v 1 3.9 0.4
v 1.1 3.8 0.4
v 1.1 3.9 0.4
v 0.1 3.8 0.3
v 0.1 3.9 0.3
v 0.2 3.8 0.3
v 0.2 3.9 0.3
v 1.1 3.8 0.3
v 1.1 3.9 0.3
v 1.2 3.8 0.3
v 1.2 3.9 0.3
v 0.5 3.7 -0.1
v 0.5 3.8 -0.1
v 0.5 3.9 -0.1
v 0.8 3.7 -0.1
v 0.8 3.8 -0.1
v 0.8 3.9 -0.1
v 0.2 2.4 -0.2
v 0.2 2.6 -0.2
v 0.3 1.7 -0.2
v 0.3 2.4 -0.2
v 0.4 1.2 -0.2
v 0.4 1.7 -0.2
v 0.5 1 -0.2
v 0.5 1.2 -0.2
v 0.6 1 -0.2
v 0.6 2.6 -0.2
v 0.7 1 -0.2
v 0.7 1.2 -0.2
v 0.7 2.6 -0.2
v 0.8 1.2 -0.2
v 0.8 1.7 -0.2
v 0.9 1.7 -0.2
v 0.9 2.4 -0.2
v 1 2.4 -0.2
v 1 2.6 -0.2
v -0.3 2.7 -0.8
v -0.3 2.9 -0.8
v -0.3 3.7 -0.8
v -0.2 2.9 -0.8
v -0.2 3.5 -0.8
v -0.2 3.7 -0.8
v 1.1 2.8 -0.8
v 1.1 2.9 -0.8
v 1.2 2.7 -0.8
v 1.2 2.8 -0.8
v 1.2 2.9 -0.8
v 1.3 2.9 -0.8
v 1.3 3.5 -0.8
v 1.5 2.7 -0.8
v 1.5 3.7 -0.8
v -0.3 2.7 0.9
v -0.3 3.5 0.9
v -0.3 3.7 0.9
v -0.2 2.9 0.9
v -0.2 3.5 0.9
v 1.1 2.8 0.9
v 1.1 2.9 0.9
v 1.2 2.7 0.9
v 1.2 2.8 0.9
v 1.2 2.9 0.9
v 1.3 2.9 0.9
v 1.3 3.5 0.9
v 1.5 2.7 0.9
v 1.5 3.7 0.9
v 0.2 2.4 0.3
v 0.2 2.6 0.3
v 0.3 1.7 0.3
v 0.3 2.4 0.3
v 0.4 1.2 0.3
v 0.4 1.7 0.3
v 0.5 1 0.3
v 0.5 1.2 0.3
v 0.6 1 0.3
v 0.6 2.6 0.3
v 0.7 1 0.3
v 0.7 1.2 0.3
v 0.7 2.6 0.3
v 0.8 1.2 0.3
v 0.8 1.7 0.3
v 0.9 1.7 0.3
v 0.9 2.4 0.3
v 1 2.4 0.3
v 1 2.6 0.3
v 0.5 3.7 0.2
v 0.5 3.8 0.2
v 0.5 3.9 0.2
v 0.8 3.7 0.2
v 0.8 3.8 0.2
v 0.8 3.9 0.2
v 0.1 3.8 -0.2
v 0.1 3.9 -0.2
v 0.2 3.8 -0.2
v 0.2 3.9 -0.2
v 1.1 3.8 -0.2
v 1.1 3.9 -0.2
v 1.2 3.8 -0.2
v 1.2 3.9 -0.2
v 0.2 3.8 -0.3
v 0.2 3.9 -0.3
v 0.3 3.8 -0.3
v 0.3 3.9 -0.3
v 1 3.8 -0.3
v 1 3.9 -0.3
v 1.1 3.8 -0.3
v 1.1 3.9 -0.3
v 0.3 3.8 -0.4
v 0.3 3.9 -0.4
v 0.4 3.8 -0.4
v 0.4 3.9 -0.4
v 0.9 3.8 -0.4
v 0.9 3.9 -0.4
v 1 3.8 -0.4
v 1 3.9 -0.4
v 0.4 3.8 -0.5
v 0.4 3.9 -0.5
v 0.9 3.8 -0.5
v 0.9 3.9 -0.5
v 0.2 2.4 -0.6
v 0.2 2.6 -0.6
v 0.3 1.7 -0.6
v 0.3 2.4 -0.6
v 0.4 1.2 -0.6
v 0.4 1.7 -0.6
v 0.4 1.8 -0.6
v 0.4 2.6 -0.6
v 0.5 1 -0.6
v 0.5 1.2 -0.6
v 0.5 1.4 -0.6
v 0.5 1.8 -0.6
v 0.6 1 -0.6
v 0.6 1.4 -0.6
v 0.7 1 -0.6
v 0.7 1.2 -0.6
v 0.7 2 -0.6
v 0.8 1.2 -0.6
v 0.8 1.7 -0.6
v 0.8 2 -0.6
v 0.8 2.6 -0.6
v 0.9 1.7 -0.6
v 0.9 2.4 -0.6
v 1 2.4 -0.6
v 1 2.6 -0.6
v -0.4 2.6 -0.9
v -0.4 3.8 -0.9
v -0.2 2.9 -0.9
v -0.2 3.5 -0.9
v -0.2 3.8 -0.9
v 1.1 2.8 -0.9
v 1.1 2.9 -0.9
v 1.2 2.7 -0.9
v 1.2 2.8 -0.9
v 1.2 2.9 -0.9
v 1.3 2.9 -0.9
v 1.3 3.5 -0.9
v 1.5 2.7 -0.9
v 1.5 3.8 -0.9
v 1.6 2.6 -0.9
v 1.6 3.8 -0.9
v 0.5 1 0.7
v 0.6 1 0.7
v 0.7 1 0.7
v 0.5 1 0.3
v 0.6 1 0.3
v 0.7 1 0.3
v 0.5 1 -0.2
v 0.6 1 -0.2
v 0.7 1 -0.2
v 0.5 1 -0.6
v 0.6 1 -0.6
v 0.7 1 -0.6
v 0.4 1.2 0.7
v 0.5 1.2 0.7
v 0.7 1.2 0.7
v 0.8 1.2 0.7
v 0.4 1.2 0.3
v 0.5 1.2 0.3
v 0.7 1.2 0.3
v 0.8 1.2 0.3
v 0.4 1.2 -0.2
v 0.5 1.2 -0.2
v 0.7 1.2 -0.2
v 0.8 1.2 -0.2
v 0.4 1.2 -0.6
v 0.5 1.2 -0.6
v 0.7 1.2 -0.6
v 0.8 1.2 -0.6
v 0.3 1.7 0.7
v 0.4 1.7 0.7
v 0.8 1.7 0.7
v 0.9 1.7 0.7
v 0.3 1.7 0.3
v 0.4 1.7 0.3
v 0.8 1.7 0.3
v 0.9 1.7 0.3
v 0.3 1.7 -0.2
v 0.4 1.7 -0.2
v 0.8 1.7 -0.2
v 0.9 1.7 -0.2
v 0.3 1.7 -0.6
v 0.4 1.7 -0.6
v 0.8 1.7 -0.6
v 0.9 1.7 -0.6
v 0.2 2.4 0.7
v 0.3 2.4 0.7
v 0.9 2.4 0.7
v 1 2.4 0.7
v 0.2 2.4 0.3
v 0.3 2.4 0.3
v 0.9 2.4 0.3
v 1 2.4 0.3
v 0.2 2.4 -0.2
v 0.3 2.4 -0.2
v 0.9 2.4 -0.2
v 1 2.4 -0.2
v 0.2 2.4 -0.6
v 0.3 2.4 -0.6
v 0.9 2.4 -0.6
v 1 2.4 -0.6
v -0.4 2.6 1
v 1.6 2.6 1
v -0.3 2.6 0.9
v 1.5 2.6 0.9
v 0.2 2.6 0.7
v 0.4 2.6 0.7
v 0.8 2.6 0.7
v 1 2.6 0.7
v 0.2 2.6 0.3
v 0.6 2.6 0.3
v 0.7 2.6 0.3
v 1 2.6 0.3
v 0.2 2.6 -0.2
v 0.6 2.6 -0.2
v 0.7 2.6 -0.2
v 1 2.6 -0.2
v 0.2 2.6 -0.6
v 0.4 2.6 -0.6
v 0.8 2.6 -0.6
v 1 2.6 -0.6
v -0.3 2.6 -0.8
v 1.5 2.6 -0.8
v -0.4 2.6 -0.9
v 1.6 2.6 -0.9
v -0.3 3.7 0.9
v 1.5 3.7 0.9
v -0.3 3.7 0.7
v 0.5 3.7 0.2
v 0.8 3.7 0.2
v 0.5 3.7 -0.1
v 0.8 3.7 -0.1
v 1.5 3.7 -0.6
v -0.3 3.7 -0.8
v -0.2 3.7 -0.8
v 1.5 3.7 -0.8
v -0.3 2.7 0.9
v 1.2 2.7 0.9
v 1.5 2.7 0.9
v 1.5 2.7 0.7
v -0.3 2.7 -0.8
v 1.2 2.7 -0.8
v 1.5 2.7 -0.8
v -0.4 3.8 1
v -0.3 3.8 1
v 1.6 3.8 1
v -0.4 3.8 0.7
v -0.3 3.8 0.7
v 0.4 3.8 0.6
v 0.9 3.8 0.6
v 0.3 3.8 0.5
v 0.4 3.8 0.5
v 0.9 3.8 0.5
v 1 3.8 0.5
v 0.2 3.8 0.4
v 0.3 3.8 0.4
v 1 3.8 0.4
v 1.1 3.8 0.4
v 0.1 3.8 0.3
v 0.2 3.8 0.3
v 1.1 3.8 0.3
v 1.2 3.8 0.3
v 0.1 3.8 -0.2
v 0.2 3.8 -0.2
v 1.1 3.8 -0.2
v 1.2 3.8 -0.2
v 0.2 3.8 -0.3
v 0.3 3.8 -0.3
v 1 3.8 -0.3
v 1.1 3.8 -0.3
v 0.3 3.8 -0.4
v 0.4 3.8 -0.4
v 0.9 3.8 -0.4
v 1 3.8 -0.4
v 0.4 3.8 -0.5
v 0.9 3.8 -0.5
v 1.5 3.8 -0.6
v 1.6 3.8 -0.6
v -0.4 3.8 -0.8
v -0.2 3.8 -0.8
v -0.4 3.8 -0.9
v -0.2 3.8 -0.9
v 1.5 3.8 -0.9
v 1.6 3.8 -0.9
v 0.4 3.9 0.6
v 0.9 3.9 0.6
v 0.3 3.9 0.5
v 0.4 3.9 0.5
v 0.9 3.9 0.5
v 1 3.9 0.5
v 0.2 3.9 0.4
v 0.3 3.9 0.4
v 1 3.9 0.4
v 1.1 3.9 0.4
v 0.1 3.9 0.3
v 0.2 3.9 0.3
v 1.1 3.9 0.3
v 1.2 3.9 0.3
v 0.5 3.9 0.2
v 0.8 3.9 0.2
v 0.5 3.9 -0.1
v 0.8 3.9 -0.1
v 0.1 3.9 -0.2
v 0.2 3.9 -0.2
v 1.1 3.9 -0.2
v 1.2 3.9 -0.2
v 0.2 3.9 -0.3
v 0.3 3.9 -0.3
v 1 3.9 -0.3
v 1.1 3.9 -0.3
v 0.3 3.9 -0.4
v 0.4 3.9 -0.4
v 0.9 3.9 -0.4
v 1 3.9 -0.4
v 0.4 3.9 -0.5
v 0.9 3.9 -0.5

# faces
f 3/3/1 2/3/1 1/3/1
f 4/3/1 2/3/1 3/3/1
f 5/3/1 2/3/1 4/3/1
f 6/3/1 3/3/1 1/3/1
f 6/2/1 4/2/1 3/2/1
f 7/1/1 5/1/1 4/1/1
f 7/2/1 4/2/1 6/2/1
f 8/3/1 6/3/1 1/3/1
f 9/1/1 7/1/1 6/1/1
f 9/3/1 6/3/1 8/3/1
f 10/3/1 2/3/1 5/3/1
f 10/1/1 7/1/1 9/1/1
f 10/1/1 5/1/1 7/1/1
f 11/3/1 2/3/1 10/3/1
f 14/3/1 13/3/1 12/3/1
f 15/3/1 13/3/1 14/3/1
f 20/3/1 17/3/1 16/3/1
f 21/3/1 17/3/1 20/3/1
f 22/3/1 19/3/1 18/3/1
f 23/3/1 19/3/1 22/3/1
f 28/3/1 25/3/1 24/3/1
f 29/3/1 25/3/1 28/3/1
f 30/3/1 27/3/1 26/3/1
f 31/3/1 27/3/1 30/3/1
f 36/3/1 33/3/1 32/3/1
f 37/3/1 33/3/1 36/3/1
f 38/3/1 35/3/1 34/3/1
f 39/3/1 35/3/1 38/3/1
f 44/3/1 41/3/1 40/3/1
f 45/3/1 41/3/1 44/3/1
f 46/3/1 43/3/1 42/3/1
f 47/3/1 43/3/1 46/3/1
f 52/3/1 49/3/1 48/3/1
f 53/3/1 49/3/1 52/3/1
f 54/3/1 51/3/1 50/3/1
f 55/3/1 51/3/1 54/3/1
f 60/3/1 57/3/1 56/3/1
f 61/3/1 57/3/1 60/3/1
f 62/3/1 59/3/1 58/3/1
f 63/3/1 59/3/1 62/3/1
f 68/3/1 65/3/1 64/3/1
f 69/3/1 65/3/1 68/3/1
f 70/3/1 67/3/1 66/3/1
f 71/3/1 67/3/1 70/3/1
f 74/1/1 73/1/1 72/1/1
f 75/1/1 73/1/1 74/1/1
f 76/3/1 75/3/1 74/3/1
f 77/3/1 75/3/1 76/3/1
f 81/1/1 79/1/1 78/1/1
f 81/3/1 80/3/1 79/3/1
f 82/3/1 80/3/1 81/3/1
f 83/1/1 81/1/1 78/1/1
f 83/2/1 82/2/1 81/2/1
f 84/3/1 80/3/1 82/3/1
f 84/2/1 82/2/1 83/2/1
f 85/1/1 83/1/1 78/1/1
f 85/1/1 84/1/1 83/1/1
f 86/3/1 80/3/1 84/3/1
f 86/1/1 84/1/1 85/1/1
f 87/3/1 80/3/1 86/3/1
f 88/3/2 89/3/2 90/3/2
f 90/3/2 89/3/2 91/3/2
f 91/3/2 89/3/2 92/3/2
f 88/3/2 90/3/2 93/3/2
f 90/2/2 91/2/2 94/2/2
f 93/3/2 90/3/2 94/3/2
f 91/1/2 92/1/2 95/1/2
f 94/2/2 91/2/2 95/2/2
f 93/3/2 94/3/2 96/3/2
f 94/1/2 95/1/2 97/1/2
f 96/3/2 94/3/2 97/3/2
f 95/1/2 92/1/2 98/1/2
f 97/1/2 95/1/2 98/1/2
f 99/1/2 100/1/2 101/1/2
f 101/1/2 100/1/2 102/1/2
f 101/3/2 102/3/2 103/3/2
f 103/3/2 102/3/2 104/3/2
f 105/2/2 106/2/2 109/2/2
f 109/2/2 106/2/2 110/2/2
f 107/2/2 108/2/2 111/2/2
f 111/2/2 108/2/2 112/2/2
f 113/1/2 114/1/2 117/1/2
f 117/1/2 114/1/2 118/1/2
f 115/1/2 116/1/2 119/1/2
f 119/1/2 116/1/2 120/1/2
f 121/1/2 122/1/2 125/1/2
f 125/1/2 122/1/2 126/1/2
f 123/1/2 124/1/2 127/1/2
f 127/1/2 124/1/2 128/1/2
f 129/3/2 130/3/2 133/3/2
f 133/3/2 130/3/2 134/3/2
f 131/3/2 132/3/2 135/3/2
f 135/3/2 132/3/2 136/3/2
f 137/1/2 138/1/2 141/1/2
f 141/1/2 138/1/2 142/1/2
f 139/1/2 140/1/2 143/1/2
f 143/1/2 140/1/2 144/1/2
f 145/3/2 146/3/2 149/3/2
f 149/3/2 146/3/2 150/3/2
f 147/3/2 148/3/2 151/3/2
f 151/3/2 148/3/2 152/3/2
f 153/3/2 154/3/2 157/3/2
f 157/3/2 154/3/2 158/3/2
f 155/3/2 156/3/2 159/3/2
f 159/3/2 156/3/2 160/3/2
f 161/3/2 162/3/2 163/3/2
f 163/3/2 162/3/2 164/3/2
f 165/3/2 166/3/2 167/3/2
f 167/3/2 166/3/2 168/3/2
f 167/1/2 168/1/2 169/1/2
f 168/3/2 166/3/2 169/3/2
f 169/3/2 166/3/2 170/3/2
f 167/1/2 169/1/2 171/1/2
f 169/2/2 170/2/2 171/2/2
f 170/3/2 166/3/2 172/3/2
f 171/2/2 170/2/2 172/2/2
f 167/1/2 171/1/2 173/1/2
f 171/1/2 172/1/2 173/1/2
f 172/3/2 166/3/2 174/3/2
f 173/1/2 172/1/2 174/1/2
f 174/3/2 166/3/2 175/3/2
f 178/3/3 177/3/3 176/3/3
f 179/3/3 177/3/3 178/3/3
f 180/3/3 178/3/3 176/3/3
f 181/1/3 179/1/3 178/1/3
f 181/3/3 178/3/3 180/3/3
f 182/3/3 180/3/3 176/3/3
f 183/2/3 181/2/3 180/2/3
f 183/3/3 180/3/3 182/3/3
f 184/3/3 182/3/3 176/3/3
f 185/2/3 183/2/3 182/2/3
f 185/3/3 182/3/3 184/3/3
f 186/2/3 181/2/3 183/2/3
f 186/2/3 183/2/3 185/2/3
f 187/1/3 185/1/3 184/1/3
f 187/2/3 181/2/3 186/2/3
f 187/1/3 186/1/3 185/1/3
f 188/1/3 179/1/3 181/1/3
f 188/2/3 181/2/3 187/2/3
f 189/3/3 184/3/3 176/3/3
f 190/1/3 187/1/3 184/1/3
f 190/3/3 184/3/3 189/3/3
f 190/1/3 188/1/3 187/1/3
f 191/1/3 179/1/3 188/1/3
f 191/1/3 188/1/3 190/1/3
f 195/3/3 193/3/3 192/3/3
f 197/3/3 195/3/3 194/3/3
f 198/3/3 195/3/3 197/3/3
f 199/3/3 193/3/3 195/3/3
f 199/3/3 195/3/3 198/3/3
f 201/3/3 198/3/3 197/3/3
f 201/3/3 197/3/3 196/3/3
f 202/3/3 198/3/3 201/3/3
f 203/2/3 199/2/3 198/2/3
f 203/3/3 198/3/3 202/3/3
f 204/3/3 202/3/3 201/3/3
f 204/3/3 201/3/3 200/3/3
f 205/2/3 203/2/3 202/2/3
f 205/3/3 202/3/3 204/3/3
f 206/2/3 205/2/3 204/2/3
f 207/2/3 205/2/3 206/2/3
f 208/2/3 199/2/3 203/2/3
f 208/2/3 205/2/3 207/2/3
f 208/2/3 203/2/3 205/2/3
f 209/1/3 208/1/3 207/1/3
f 210/1/3 208/1/3 209/1/3
f 211/2/3 199/2/3 208/2/3
f 211/1/3 208/1/3 210/1/3
f 212/2/3 199/2/3 211/2/3
f 213/1/3 211/1/3 210/1/3
f 213/1/3 212/1/3 211/1/3
f 214/1/3 212/1/3 213/1/3
f 215/1/3 212/1/3 214/1/3
f 216/1/3 212/1/3 215/1/3
f 219/3/3 218/3/3 217/3/3
f 220/3/3 218/3/3 219/3/3
f 223/3/3 222/3/3 221/3/3
f 224/3/3 222/3/3 223/3/3
f 227/3/3 226/3/3 225/3/3
f 228/3/3 226/3/3 227/3/3
f 231/3/3 230/3/3 229/3/3
f 232/3/3 230/3/3 231/3/3
f 235/3/3 234/3/3 233/3/3
f 236/3/3 234/3/3 235/3/3
f 239/3/3 238/3/3 237/3/3
f 240/3/3 238/3/3 239/3/3
f 243/3/3 242/3/3 241/3/3
f 244/3/3 242/3/3 243/3/3
f 248/1/3 246/1/3 245/1/3
f 249/3/3 247/3/3 246/3/3
f 249/1/3 246/1/3 248/1/3
f 250/3/3 247/3/3 249/3/3
f 254/3/3 252/3/3 251/3/3
f 256/3/3 254/3/3 253/3/3
f 258/3/3 256/3/3 255/3/3
f 259/3/3 258/3/3 257/3/3
f 260/3/3 252/3/3 254/3/3
f 260/3/3 258/3/3 259/3/3
f 260/3/3 254/3/3 256/3/3
f 260/3/3 256/3/3 258/3/3
f 261/2/3 260/2/3 259/2/3
f 262/2/3 260/2/3 261/2/3
f 263/2/3 260/2/3 262/2/3
f 264/1/3 263/1/3 262/1/3
f 265/1/3 263/1/3 264/1/3
f 266/1/3 263/1/3 265/1/3
f 267/1/3 263/1/3 266/1/3
f 268/1/3 263/1/3 267/1/3
f 269/1/3 263/1/3 268/1/3
f 273/3/3 271/3/3 270/3/3
f 273/3/3 272/3/3 271/3/3
f 274/3/3 272/3/3 273/3/3
f 275/3/3 272/3/3 274/3/3
f 276/3/3 273/3/3 270/3/3
f 277/2/3 274/2/3 273/2/3
f 277/3/3 273/3/3 276/3/3
f 278/3/3 276/3/3 270/3/3
f 279/2/3 277/2/3 276/2/3
f 279/3/3 276/3/3 278/3/3
f 280/2/3 274/2/3 277/2/3
f 280/2/3 277/2/3 279/2/3
f 281/1/3 279/1/3 278/1/3
f 281/2/3 274/2/3 280/2/3
f 281/1/3 280/1/3 279/1/3
f 282/1/3 275/1/3 274/1/3
f 282/2/3 274/2/3 281/2/3
f 283/1/3 281/1/3 278/1/3
f 283/1/3 282/1/3 281/1/3
f 284/1/3 275/1/3 282/1/3
f 284/1/3 282/1/3 283/1/3
f 285/3/4 286/3/4 288/3/4
f 286/1/4 287/1/4 289/1/4
f 288/3/4 286/3/4 289/3/4
f 285/3/4 288/3/4 290/3/4
f 288/2/4 289/2/4 291/2/4
f 290/3/4 288/3/4 291/3/4
f 285/3/4 290/3/4 292/3/4
f 290/2/4 291/2/4 293/2/4
f 292/3/4 290/3/4 293/3/4
f 291/2/4 289/2/4 294/2/4
f 293/2/4 291/2/4 294/2/4
f 292/1/4 293/1/4 295/1/4
f 294/2/4 289/2/4 295/2/4
f 293/1/4 294/1/4 295/1/4
f 289/1/4 287/1/4 296/1/4
f 295/2/4 289/2/4 296/2/4
f 292/1/4 295/1/4 297/1/4
f 295/1/4 296/1/4 297/1/4
f 296/1/4 287/1/4 298/1/4
f 297/1/4 296/1/4 298/1/4
f 299/3/4 300/3/4 302/3/4
f 301/3/4 302/3/4 304/3/4
f 303/3/4 304/3/4 306/3/4
f 305/3/4 306/3/4 307/3/4
f 302/3/4 300/3/4 308/3/4
f 307/3/4 306/3/4 308/3/4
f 304/3/4 302/3/4 308/3/4
f 306/3/4 304/3/4 308/3/4
f 307/2/4 308/2/4 309/2/4
f 309/2/4 308/2/4 310/2/4
f 310/2/4 308/2/4 311/2/4
f 310/1/4 311/1/4 312/1/4
f 312/1/4 311/1/4 313/1/4
f 313/1/4 311/1/4 314/1/4
f 314/1/4 311/1/4 315/1/4
f 315/1/4 311/1/4 316/1/4
f 316/1/4 311/1/4 317/1/4
f 318/1/4 319/1/4 321/1/4
f 319/3/4 320/3/4 322/3/4
f 321/1/4 319/1/4 322/1/4
f 322/3/4 320/3/4 323/3/4
f 324/3/4 325/3/4 326/3/4
f 326/3/4 325/3/4 327/3/4
f 328/3/4 329/3/4 330/3/4
f 330/3/4 329/3/4 331/3/4
f 332/3/4 333/3/4 334/3/4
f 334/3/4 333/3/4 335/3/4
f 336/3/4 337/3/4 338/3/4
f 338/3/4 337/3/4 339/3/4
f 340/3/4 341/3/4 342/3/4
f 342/3/4 341/3/4 343/3/4
f 344/3/4 345/3/4 346/3/4
f 346/3/4 345/3/4 347/3/4
f 348/3/4 349/3/4 350/3/4
f 350/3/4 349/3/4 351/3/4
f 352/3/4 353/3/4 355/3/4
f 354/3/4 355/3/4 357/3/4
f 357/3/4 355/3/4 358/3/4
f 355/3/4 353/3/4 359/3/4
f 358/3/4 355/3/4 359/3/4
f 357/3/4 358/3/4 361/3/4
f 356/3/4 357/3/4 361/3/4
f 361/3/4 358/3/4 362/3/4
f 358/2/4 359/2/4 363/2/4
f 362/3/4 358/3/4 363/3/4
f 361/3/4 362/3/4 364/3/4
f 360/3/4 361/3/4 364/3/4
f 362/2/4 363/2/4 365/2/4
f 364/3/4 362/3/4 365/3/4
f 364/2/4 365/2/4 366/2/4
f 366/2/4 365/2/4 367/2/4
f 363/2/4 359/2/4 368/2/4
f 367/2/4 365/2/4 368/2/4
f 365/2/4 363/2/4 368/2/4
f 367/1/4 368/1/4 369/1/4
f 369/1/4 368/1/4 370/1/4
f 368/2/4 359/2/4 371/2/4
f 370/1/4 368/1/4 371/1/4
f 371/2/4 359/2/4 372/2/4
f 370/1/4 371/1/4 373/1/4
f 371/1/4 372/1/4 373/1/4
f 373/1/4 372/1/4 374/1/4
f 374/1/4 372/1/4 375/1/4
f 375/1/4 372/1/4 376/1/4
f 377/3/4 378/3/4 379/3/4
f 379/3/4 378/3/4 380/3/4
f 380/3/4 378/3/4 381/3/4
f 377/3/4 379/3/4 382/3/4
f 379/2/4 380/2/4 383/2/4
f 382/3/4 379/3/4 383/3/4
f 377/3/4 382/3/4 384/3/4
f 382/2/4 383/2/4 385/2/4
f 384/3/4 382/3/4 385/3/4
f 383/2/4 380/2/4 386/2/4
f 385/2/4 383/2/4 386/2/4
f 384/1/4 385/1/4 387/1/4
f 386/2/4 380/2/4 387/2/4
f 385/1/4 386/1/4 387/1/4
f 380/1/4 381/1/4 388/1/4
f 387/2/4 380/2/4 388/2/4
f 377/3/4 384/3/4 389/3/4
f 384/1/4 387/1/4 389/1/4
f 387/1/4 388/1/4 389/1/4
f 388/1/4 381/1/4 390/1/4
f 389/1/4 388/1/4 390/1/4
f 377/3/4 389/3/4 391/3/4
f 389/3/4 390/3/4 391/3/4
f 391/3/4 390/3/4 392/3/4
f 396/3/5 394/3/5 393/3/5
f 397/2/5 395/2/5 394/2/5
f 397/3/5 394/3/5 396/3/5
f 398/2/5 395/2/5 397/2/5
f 402/3/5 400/3/5 399/3/5
f 403/2/5 401/2/5 400/2/5
f 403/3/5 400/3/5 402/3/5
f 404/2/5 401/2/5 403/2/5
f 409/3/5 406/3/5 405/3/5
f 410/3/5 406/3/5 409/3/5
f 411/1/5 408/1/5 407/1/5
f 412/1/5 408/1/5 411/1/5
f 417/3/5 414/3/5 413/3/5
f 418/3/5 414/3/5 417/3/5
f 419/1/5 416/1/5 415/1/5
f 420/1/5 416/1/5 419/1/5
f 425/3/5 422/3/5 421/3/5
f 426/3/5 422/3/5 425/3/5
f 427/1/5 424/1/5 423/1/5
f 428/1/5 424/1/5 427/1/5
f 433/3/5 430/3/5 429/3/5
f 434/3/5 430/3/5 433/3/5
f 435/1/5 432/1/5 431/1/5
f 436/1/5 432/1/5 435/1/5
f 441/3/5 438/3/5 437/3/5
f 442/3/5 438/3/5 441/3/5
f 443/1/5 440/1/5 439/1/5
f 444/1/5 440/1/5 443/1/5
f 449/3/5 446/3/5 445/3/5
f 450/3/5 446/3/5 449/3/5
f 451/1/5 448/1/5 447/1/5
f 452/1/5 448/1/5 451/1/5
f 455/3/5 454/3/5 453/3/5
f 456/3/5 454/3/5 455/3/5
f 457/2/5 456/2/5 455/2/5
f 458/2/5 456/2/5 457/2/5
f 459/2/5 456/2/5 458/2/5
f 460/2/5 456/2/5 459/2/5
f 461/2/5 457/2/5 455/2/5
f 464/2/5 456/2/5 460/2/5
f 465/2/5 463/2/5 462/2/5
f 465/2/5 464/2/5 463/2/5
f 465/2/5 461/2/5 455/2/5
f 465/2/5 462/2/5 461/2/5
f 466/2/5 464/2/5 465/2/5
f 467/2/5 464/2/5 466/2/5
f 468/2/5 456/2/5 464/2/5
f 468/2/5 464/2/5 467/2/5
f 469/2/5 465/2/5 455/2/5
f 472/2/5 456/2/5 468/2/5
f 473/3/5 455/3/5 453/3/5
f 473/2/5 472/2/5 471/2/5
f 473/2/5 471/2/5 470/2/5
f 473/2/5 469/2/5 455/2/5
f 473/2/5 470/2/5 469/2/5
f 474/2/5 456/2/5 472/2/5
f 474/2/5 472/2/5 473/2/5
f 474/3/5 454/3/5 456/3/5
f 475/3/5 473/3/5 453/3/5
f 475/3/5 474/3/5 473/3/5
f 476/3/5 454/3/5 474/3/5
f 476/3/5 474/3/5 475/3/5
f 479/1/5 478/1/5 477/1/5
f 480/1/5 478/1/5 479/1/5
f 481/1/5 478/1/5 480/1/5
f 482/1/5 480/1/5 479/1/5
f 483/1/5 478/1/5 481/1/5
f 484/1/5 478/1/5 483/1/5
f 484/1/5 483/1/5 482/1/5
f 485/1/5 482/1/5 479/1/5
f 485/1/5 484/1/5 482/1/5
f 486/1/5 484/1/5 485/1/5
f 487/1/5 484/1/5 486/1/5
f 488/2/6 489/2/6 491/2/6
f 489/2/6 490/2/6 491/2/6
f 488/2/6 491/2/6 492/2/6
f 492/2/6 491/2/6 493/2/6
f 493/2/6 491/2/6 494/2/6
f 495/3/6 496/3/6 498/3/6
f 496/1/6 497/1/6 499/1/6
f 498/3/6 496/3/6 499/3/6
f 498/1/6 499/1/6 500/1/6
f 499/1/6 497/1/6 500/1/6
f 500/1/6 497/1/6 501/1/6
f 498/1/6 500/1/6 502/1/6
f 502/1/6 500/1/6 503/1/6
f 501/1/6 497/1/6 504/1/6
f 504/1/6 497/1/6 505/1/6
f 498/1/6 502/1/6 506/1/6
f 506/1/6 502/1/6 507/1/6
f 505/1/6 497/1/6 508/1/6
f 508/1/6 497/1/6 509/1/6
f 498/1/6 506/1/6 510/1/6
f 510/1/6 506/1/6 511/1/6
f 509/1/6 497/1/6 512/1/6
f 512/1/6 497/1/6 513/1/6
f 498/1/6 510/1/6 514/1/6
f 513/1/6 497/1/6 517/1/6
f 514/1/6 515/1/6 518/1/6
f 516/1/6 517/1/6 521/1/6
f 518/1/6 519/1/6 522/1/6
f 520/1/6 521/1/6 525/1/6
f 522/1/6 523/1/6 526/1/6
f 524/1/6 525/1/6 527/1/6
f 517/1/6 497/1/6 528/1/6
f 526/1/6 527/1/6 528/1/6
f 527/1/6 525/1/6 528/1/6
f 521/1/6 517/1/6 528/1/6
f 525/1/6 521/1/6 528/1/6
f 528/1/6 497/1/6 529/1/6
f 522/1/6 526/1/6 530/1/6
f 498/1/6 514/1/6 530/1/6
f 514/1/6 518/1/6 530/1/6
f 526/1/6 528/1/6 530/1/6
f 518/1/6 522/1/6 530/1/6
f 530/1/6 528/1/6 531/1/6
f 530/3/6 531/3/6 532/3/6
f 531/1/6 528/1/6 533/1/6
f 532/3/6 531/3/6 533/3/6
f 528/3/6 529/3/6 534/3/6
f 533/1/6 528/1/6 534/1/6
f 534/3/6 529/3/6 535/3/6
f 536/3/6 537/3/6 539/3/6
f 539/3/6 537/3/6 540/3/6
f 538/3/6 539/3/6 543/3/6
f 540/3/6 541/3/6 543/3/6
f 539/3/6 540/3/6 543/3/6
f 543/3/6 541/3/6 544/3/6
f 542/3/6 543/3/6 547/3/6
f 544/3/6 545/3/6 547/3/6
f 543/3/6 544/3/6 547/3/6
f 547/3/6 545/3/6 548/3/6
f 546/3/6 547/3/6 550/3/6
f 548/3/6 549/3/6 550/3/6
f 547/3/6 548/3/6 550/3/6
f 550/3/6 549/3/6 551/3/6
f 546/3/6 550/3/6 552/3/6
f 551/3/6 549/3/6 553/3/6
f 546/3/6 552/3/6 554/3/6
f 552/3/6 553/3/6 554/3/6
f 554/3/6 553/3/6 555/3/6
f 553/3/6 549/3/6 556/3/6
f 555/3/6 553/3/6 556/3/6
f 556/3/6 549/3/6 557/3/6
f 555/3/6 556/3/6 558/3/6
f 558/3/6 556/3/6 559/3/6
f 559/3/6 556/3/6 560/3/6
f 560/3/6 556/3/6 561/3/6
f 559/3/6 560/3/6 562/3/6
f 562/3/6 560/3/6 563/3/6
f 563/3/6 560/3/6 564/3/6
f 564/3/6 560/3/6 565/3/6
f 563/3/6 564/3/6 566/3/6
f 566/3/6 564/3/6 567/3/6
