# MagicaVoxel @ Ephtracy

# group
o 

# material
mtllib WheelyBase-0.mtl
usemtl palette

# normals
vn -1 0 0
vn 1 0 0
vn 0 0 1
vn 0 0 -1
vn 0 -1 0
vn 0 1 0

# texcoords
vt 0.560547 0.5
vt 0.978516 0.5
vt 0.982422 0.5
vt 0.986328 0.5
vt 0.994141 0.5

# verts
v 0.1 5 0.5
v 0.1 5 -0.4
v 0.1 5.1 -0.2
v 0.1 5.1 -0.3
v 0.1 5.2 0.3
v 0.1 5.2 -0.2
v 0.1 5.6 0.4
v 0.1 5.6 0.3
v 0.1 5.6 -0.2
v 0.1 5.7 0.5
v 0.1 5.7 0.4
v 0.1 5.7 -0.3
v 0.1 5.7 -0.4
v 0.1 5.8 0.5
v 0.1 5.8 -0.4
v 1.1 5.1 0.4
v 1.1 5.1 -0.2
v 1.1 5.1 -0.3
v 1.1 5.2 0.3
v 1.1 5.2 -0.2
v 1.1 5.6 0.4
v 1.1 5.6 0.3
v 1.1 5.6 -0.2
v 1.1 5.7 0.4
v 1.1 5.7 -0.3
v 0.2 5.1 0.4
v 0.2 5.1 -0.2
v 0.2 5.1 -0.3
v 0.2 5.2 0.3
v 0.2 5.2 -0.2
v 0.2 5.6 0.4
v 0.2 5.6 0.3
v 0.2 5.6 -0.2
v 0.2 5.6 -0.3
v 0.2 5.7 0.4
v 0.2 5.7 -0.3
v 1.2 5 0.5
v 1.2 5 -0.4
v 1.2 5.1 -0.2
v 1.2 5.1 -0.4
v 1.2 5.2 0.3
v 1.2 5.2 -0.2
v 1.2 5.6 0.5
v 1.2 5.6 0.3
v 1.2 5.6 -0.2
v 1.2 5.8 0.5
v 1.2 5.8 -0.4
v 0.1 5 0.5
v 0.1 5.7 0.5
v 0.1 5.8 0.5
v 0.2 5.6 0.5
v 0.2 5.7 0.5
v 0.2 5.8 0.5
v 0.3 5.2 0.5
v 0.3 5.6 0.5
v 1 5.1 0.5
v 1 5.2 0.5
v 1 5.6 0.5
v 1.1 5.1 0.5
v 1.1 5.6 0.5
v 1.1 5.7 0.5
v 1.1 5.8 0.5
v 1.2 5 0.5
v 1.2 5.6 0.5
v 1.2 5.8 0.5
v 0.2 5.1 -0.3
v 0.2 5.6 -0.3
v 0.2 5.7 -0.3
v 0.3 5.2 -0.3
v 0.3 5.6 -0.3
v 0.4 5.3 -0.3
v 0.4 5.6 -0.3
v 0.6 5.3 -0.3
v 0.6 5.6 -0.3
v 0.7 5.3 -0.3
v 0.7 5.6 -0.3
v 0.9 5.3 -0.3
v 0.9 5.6 -0.3
v 1 5.1 -0.3
v 1 5.2 -0.3
v 1 5.6 -0.3
v 1.1 5.1 -0.3
v 1.1 5.7 -0.3
v 0.2 5.1 0.4
v 0.2 5.6 0.4
v 0.2 5.7 0.4
v 0.3 5.2 0.4
v 0.3 5.6 0.4
v 1 5.1 0.4
v 1 5.2 0.4
v 1 5.6 0.4
v 1.1 5.1 0.4
v 1.1 5.6 0.4
v 1.1 5.7 0.4
v 0.1 5 -0.4
v 0.1 5.7 -0.4
v 0.1 5.8 -0.4
v 0.2 5.6 -0.4
v 0.2 5.7 -0.4
v 0.3 5.2 -0.4
v 0.3 5.6 -0.4
v 0.4 5.3 -0.4
v 0.4 5.6 -0.4
v 0.6 5.3 -0.4
v 0.6 5.6 -0.4
v 0.7 5.3 -0.4
v 0.7 5.6 -0.4
v 0.9 5.3 -0.4
v 0.9 5.6 -0.4
v 1 5.1 -0.4
v 1 5.2 -0.4
v 1 5.6 -0.4
v 1.2 5 -0.4
v 1.2 5.1 -0.4
v 1.2 5.8 -0.4
v 0.1 5 0.5
v 1.2 5 0.5
v 0.2 5 0.4
v 1.1 5 0.4
v 0.2 5 -0.3
v 1.1 5 -0.3
v 0.1 5 -0.4
v 1.2 5 -0.4
v 0.2 5.7 0.4
v 1.1 5.7 0.4
v 0.2 5.7 -0.3
v 1.1 5.7 -0.3
v 0.2 5.1 0.4
v 1 5.1 0.4
v 1.1 5.1 0.4
v 0.2 5.1 -0.2
v 1.1 5.1 -0.2
v 0.2 5.1 -0.3
v 1 5.1 -0.3
v 1.1 5.1 -0.3
v 0.1 5.8 0.5
v 0.2 5.8 0.5
v 1.1 5.8 0.5
v 1.2 5.8 0.5
v 0.2 5.8 0.4
v 1.1 5.8 0.4
v 0.2 5.8 -0.3
v 1.1 5.8 -0.3
v 0.1 5.8 -0.4
v 1.2 5.8 -0.4

# faces
f 3/4/1 2/4/1 1/4/1
f 4/4/1 2/4/1 3/4/1
f 5/4/1 3/4/1 1/4/1
f 6/2/1 4/2/1 3/2/1
f 6/4/1 3/4/1 5/4/1
f 7/4/1 5/4/1 1/4/1
f 8/3/1 6/3/1 5/3/1
f 8/4/1 5/4/1 7/4/1
f 9/2/1 4/2/1 6/2/1
f 9/3/1 6/3/1 8/3/1
f 10/4/1 7/4/1 1/4/1
f 11/2/1 8/2/1 7/2/1
f 11/4/1 7/4/1 10/4/1
f 11/2/1 9/2/1 8/2/1
f 12/4/1 2/4/1 4/4/1
f 12/2/1 9/2/1 11/2/1
f 12/2/1 4/2/1 9/2/1
f 13/4/1 2/4/1 12/4/1
f 14/2/1 11/2/1 10/2/1
f 14/2/1 12/2/1 11/2/1
f 14/2/1 13/2/1 12/2/1
f 15/2/1 13/2/1 14/2/1
f 19/4/1 17/4/1 16/4/1
f 20/2/1 18/2/1 17/2/1
f 20/4/1 17/4/1 19/4/1
f 21/4/1 19/4/1 16/4/1
f 22/3/1 20/3/1 19/3/1
f 22/4/1 19/4/1 21/4/1
f 23/2/1 18/2/1 20/2/1
f 23/3/1 20/3/1 22/3/1
f 24/2/1 22/2/1 21/2/1
f 24/2/1 23/2/1 22/2/1
f 25/2/1 18/2/1 23/2/1
f 25/2/1 23/2/1 24/2/1
f 26/4/2 27/4/2 29/4/2
f 27/2/2 28/2/2 30/2/2
f 29/4/2 27/4/2 30/4/2
f 26/4/2 29/4/2 31/4/2
f 29/3/2 30/3/2 32/3/2
f 31/4/2 29/4/2 32/4/2
f 30/2/2 28/2/2 33/2/2
f 32/3/2 30/3/2 33/3/2
f 33/2/2 28/2/2 34/2/2
f 31/2/2 32/2/2 35/2/2
f 32/2/2 33/2/2 35/2/2
f 33/2/2 34/2/2 35/2/2
f 35/2/2 34/2/2 36/2/2
f 37/4/2 38/4/2 39/4/2
f 39/4/2 38/4/2 40/4/2
f 37/4/2 39/4/2 41/4/2
f 39/2/2 40/2/2 42/2/2
f 41/4/2 39/4/2 42/4/2
f 37/4/2 41/4/2 43/4/2
f 41/3/2 42/3/2 44/3/2
f 43/4/2 41/4/2 44/4/2
f 42/2/2 40/2/2 45/2/2
f 44/3/2 42/3/2 45/3/2
f 43/2/2 44/2/2 46/2/2
f 44/2/2 45/2/2 46/2/2
f 45/2/2 40/2/2 47/2/2
f 46/2/2 45/2/2 47/2/2
f 51/4/3 49/4/3 48/4/3
f 52/2/3 50/2/3 49/2/3
f 52/4/3 49/4/3 51/4/3
f 53/2/3 50/2/3 52/2/3
f 54/4/3 51/4/3 48/4/3
f 55/2/3 52/2/3 51/2/3
f 55/4/3 51/4/3 54/4/3
f 56/4/3 54/4/3 48/4/3
f 57/3/3 55/3/3 54/3/3
f 57/4/3 54/4/3 56/4/3
f 58/2/3 52/2/3 55/2/3
f 58/3/3 55/3/3 57/3/3
f 59/2/3 57/2/3 56/2/3
f 59/4/3 56/4/3 48/4/3
f 59/2/3 58/2/3 57/2/3
f 60/2/3 52/2/3 58/2/3
f 60/2/3 58/2/3 59/2/3
f 61/5/3 53/5/3 52/5/3
f 61/2/3 52/2/3 60/2/3
f 62/5/3 53/5/3 61/5/3
f 63/4/3 59/4/3 48/4/3
f 63/4/3 60/4/3 59/4/3
f 64/2/3 62/2/3 61/2/3
f 64/4/3 60/4/3 63/4/3
f 64/2/3 61/2/3 60/2/3
f 65/2/3 62/2/3 64/2/3
f 69/4/3 67/4/3 66/4/3
f 70/2/3 68/2/3 67/2/3
f 70/4/3 67/4/3 69/4/3
f 71/3/3 70/3/3 69/3/3
f 72/2/3 68/2/3 70/2/3
f 72/3/3 70/3/3 71/3/3
f 73/3/3 71/3/3 69/3/3
f 73/1/3 72/1/3 71/1/3
f 74/2/3 68/2/3 72/2/3
f 74/1/3 72/1/3 73/1/3
f 75/3/3 73/3/3 69/3/3
f 75/3/3 74/3/3 73/3/3
f 76/2/3 68/2/3 74/2/3
f 76/3/3 74/3/3 75/3/3
f 77/3/3 75/3/3 69/3/3
f 77/1/3 76/1/3 75/1/3
f 78/2/3 68/2/3 76/2/3
f 78/1/3 76/1/3 77/1/3
f 79/4/3 69/4/3 66/4/3
f 80/3/3 77/3/3 69/3/3
f 80/4/3 69/4/3 79/4/3
f 80/3/3 78/3/3 77/3/3
f 81/2/3 68/2/3 78/2/3
f 81/3/3 78/3/3 80/3/3
f 82/2/3 80/2/3 79/2/3
f 82/2/3 81/2/3 80/2/3
f 83/2/3 68/2/3 81/2/3
f 83/2/3 81/2/3 82/2/3
f 84/4/4 85/4/4 87/4/4
f 85/2/4 86/2/4 88/2/4
f 87/4/4 85/4/4 88/4/4
f 84/4/4 87/4/4 89/4/4
f 87/3/4 88/3/4 90/3/4
f 89/4/4 87/4/4 90/4/4
f 88/2/4 86/2/4 91/2/4
f 90/3/4 88/3/4 91/3/4
f 89/2/4 90/2/4 92/2/4
f 90/2/4 91/2/4 92/2/4
f 91/2/4 86/2/4 93/2/4
f 92/2/4 91/2/4 93/2/4
f 93/2/4 86/2/4 94/2/4
f 95/4/4 96/4/4 98/4/4
f 96/2/4 97/2/4 99/2/4
f 98/4/4 96/4/4 99/4/4
f 95/4/4 98/4/4 100/4/4
f 98/2/4 99/2/4 101/2/4
f 100/4/4 98/4/4 101/4/4
f 100/3/4 101/3/4 102/3/4
f 101/2/4 99/2/4 103/2/4
f 102/3/4 101/3/4 103/3/4
f 100/3/4 102/3/4 104/3/4
f 102/1/4 103/1/4 104/1/4
f 103/2/4 99/2/4 105/2/4
f 104/1/4 103/1/4 105/1/4
f 100/3/4 104/3/4 106/3/4
f 104/3/4 105/3/4 106/3/4
f 105/2/4 99/2/4 107/2/4
f 106/3/4 105/3/4 107/3/4
f 100/3/4 106/3/4 108/3/4
f 106/1/4 107/1/4 108/1/4
f 107/2/4 99/2/4 109/2/4
f 108/1/4 107/1/4 109/1/4
f 95/4/4 100/4/4 110/4/4
f 100/3/4 108/3/4 111/3/4
f 110/4/4 100/4/4 111/4/4
f 108/3/4 109/3/4 111/3/4
f 109/2/4 99/2/4 112/2/4
f 111/3/4 109/3/4 112/3/4
f 95/4/4 110/4/4 113/4/4
f 110/2/4 111/2/4 114/2/4
f 113/4/4 110/4/4 114/4/4
f 111/2/4 112/2/4 114/2/4
f 99/2/4 97/2/4 115/2/4
f 114/2/4 112/2/4 115/2/4
f 112/2/4 99/2/4 115/2/4
f 118/4/5 117/4/5 116/4/5
f 119/4/5 117/4/5 118/4/5
f 120/4/5 118/4/5 116/4/5
f 120/3/5 119/3/5 118/3/5
f 121/4/5 117/4/5 119/4/5
f 121/3/5 119/3/5 120/3/5
f 122/4/5 120/4/5 116/4/5
f 122/4/5 121/4/5 120/4/5
f 123/4/5 117/4/5 121/4/5
f 123/4/5 121/4/5 122/4/5
f 126/3/5 125/3/5 124/3/5
f 127/3/5 125/3/5 126/3/5
f 128/3/6 129/3/6 131/3/6
f 129/3/6 130/3/6 131/3/6
f 131/3/6 130/3/6 132/3/6
f 131/3/6 132/3/6 133/3/6
f 133/3/6 132/3/6 134/3/6
f 134/3/6 132/3/6 135/3/6
f 136/2/6 137/2/6 140/2/6
f 137/5/6 138/5/6 140/5/6
f 138/2/6 139/2/6 141/2/6
f 140/5/6 138/5/6 141/5/6
f 136/2/6 140/2/6 142/2/6
f 140/3/6 141/3/6 142/3/6
f 141/2/6 139/2/6 143/2/6
f 142/3/6 141/3/6 143/3/6
f 136/2/6 142/2/6 144/2/6
f 142/2/6 143/2/6 144/2/6
f 143/2/6 139/2/6 145/2/6
f 144/2/6 143/2/6 145/2/6
