# MagicaVoxel @ Ephtracy

# group
o 

# material
mtllib LowerBotArm.mtl
usemtl palette

# normals
vn -1 0 0
vn 1 0 0
vn 0 0 1
vn 0 0 -1
vn 0 -1 0
vn 0 1 0

# texcoords
vt 0.974609 0.5
vt 0.978516 0.5
vt 0.982422 0.5

# verts
v -0.4 2.4 0.0999999
v -0.4 2.4 -5.96046e-08
v -0.4 2.4 -0.1
v -0.4 2.4 -0.2
v -0.4 3.3 0.0999999
v -0.4 3.3 -5.96046e-08
v -0.4 3.3 -0.1
v -0.4 3.3 -0.2
v -0.3 2 0.0999999
v -0.3 2 -0.2
v -0.3 2.4 0.2
v -0.3 2.4 0.0999999
v -0.3 2.4 -5.96046e-08
v -0.3 2.4 -0.1
v -0.3 2.4 -0.2
v -0.3 2.4 -0.3
v -0.3 3.3 0.2
v -0.3 3.3 0.0999999
v -0.3 3.3 -5.96046e-08
v -0.3 3.3 -0.1
v -0.3 3.3 -0.2
v -0.3 3.3 -0.3
v -0.3 3.6 0.0999999
v -0.3 3.6 -0.2
v -0.1 2 0.0999999
v -0.1 2 -0.2
v -0.1 2.4 0.2
v -0.1 2.4 0.0999999
v -0.1 2.4 -5.96046e-08
v -0.1 2.4 -0.1
v -0.1 2.4 -0.2
v -0.1 2.4 -0.3
v -0.1 3.3 0.2
v -0.1 3.3 0.0999999
v -0.1 3.3 -5.96046e-08
v -0.1 3.3 -0.1
v -0.1 3.3 -0.2
v -0.1 3.3 -0.3
v -0.1 3.6 0.0999999
v -0.1 3.6 -0.2
v 0 2.4 0.0999999
v 0 2.4 -5.96046e-08
v 0 2.4 -0.1
v 0 2.4 -0.2
v 0 3.3 0.0999999
v 0 3.3 -5.96046e-08
v 0 3.3 -0.1
v 0 3.3 -0.2
v -0.3 2.4 0.2
v -0.3 3.3 0.2
v -0.2 2.4 0.2
v -0.2 3.3 0.2
v -0.1 2.4 0.2
v -0.1 3.3 0.2
v -0.4 2.4 0.0999999
v -0.4 3.3 0.0999999
v -0.3 2 0.0999999
v -0.3 2.4 0.0999999
v -0.3 3.3 0.0999999
v -0.3 3.6 0.0999999
v -0.2 2.4 0.0999999
v -0.2 3.3 0.0999999
v -0.1 2 0.0999999
v -0.1 2.4 0.0999999
v -0.1 3.3 0.0999999
v -0.1 3.6 0.0999999
v 0 2.4 0.0999999
v 0 3.3 0.0999999
v -0.4 2.4 -0.2
v -0.4 3.3 -0.2
v -0.3 2 -0.2
v -0.3 2.4 -0.2
v -0.3 3.3 -0.2
v -0.3 3.6 -0.2
v -0.1 2 -0.2
v -0.1 2.4 -0.2
v -0.1 3.3 -0.2
v -0.1 3.6 -0.2
v 0 2.4 -0.2
v 0 3.3 -0.2
v -0.3 2.4 -0.3
v -0.3 3.3 -0.3
v -0.1 2.4 -0.3
v -0.1 3.3 -0.3
v -0.3 2 0.0999999
v -0.1 2 0.0999999
v -0.3 2 -0.2
v -0.1 2 -0.2
v -0.3 2.4 0.2
v -0.2 2.4 0.2
v -0.1 2.4 0.2
v -0.4 2.4 0.0999999
v -0.3 2.4 0.0999999
v -0.2 2.4 0.0999999
v -0.1 2.4 0.0999999
v 0 2.4 0.0999999
v -0.4 2.4 -5.96046e-08
v -0.3 2.4 -5.96046e-08
v -0.1 2.4 -5.96046e-08
v 0 2.4 -5.96046e-08
v -0.4 2.4 -0.1
v -0.3 2.4 -0.1
v -0.1 2.4 -0.1
v 0 2.4 -0.1
v -0.4 2.4 -0.2
v -0.3 2.4 -0.2
v -0.1 2.4 -0.2
v 0 2.4 -0.2
v -0.3 2.4 -0.3
v -0.1 2.4 -0.3
v -0.3 3.3 0.2
v -0.2 3.3 0.2
v -0.1 3.3 0.2
v -0.4 3.3 0.0999999
v -0.3 3.3 0.0999999
v -0.2 3.3 0.0999999
v -0.1 3.3 0.0999999
v 0 3.3 0.0999999
v -0.4 3.3 -5.96046e-08
v -0.3 3.3 -5.96046e-08
v -0.1 3.3 -5.96046e-08
v 0 3.3 -5.96046e-08
v -0.4 3.3 -0.1
v -0.3 3.3 -0.1
v -0.1 3.3 -0.1
v 0 3.3 -0.1
v -0.4 3.3 -0.2
v -0.3 3.3 -0.2
v -0.1 3.3 -0.2
v 0 3.3 -0.2
v -0.3 3.3 -0.3
v -0.1 3.3 -0.3
v -0.3 3.6 0.0999999
v -0.1 3.6 0.0999999
v -0.3 3.6 -0.2
v -0.1 3.6 -0.2

# faces
f 5/1/1 2/1/1 1/1/1
f 6/2/1 3/2/1 2/2/1
f 6/1/1 2/1/1 5/1/1
f 7/3/1 4/3/1 3/3/1
f 7/2/1 3/2/1 6/2/1
f 8/3/1 4/3/1 7/3/1
f 12/2/1 10/2/1 9/2/1
f 13/2/1 10/2/1 12/2/1
f 14/2/1 10/2/1 13/2/1
f 15/2/1 10/2/1 14/2/1
f 17/1/1 12/1/1 11/1/1
f 18/1/1 12/1/1 17/1/1
f 21/3/1 16/3/1 15/3/1
f 22/3/1 16/3/1 21/3/1
f 23/1/1 20/1/1 19/1/1
f 23/1/1 21/1/1 20/1/1
f 23/1/1 19/1/1 18/1/1
f 24/1/1 21/1/1 23/1/1
f 25/2/2 26/2/2 28/2/2
f 28/2/2 26/2/2 29/2/2
f 29/2/2 26/2/2 30/2/2
f 30/2/2 26/2/2 31/2/2
f 27/3/2 28/3/2 33/3/2
f 33/3/2 28/3/2 34/3/2
f 31/3/2 32/3/2 37/3/2
f 37/3/2 32/3/2 38/3/2
f 35/1/2 36/1/2 39/1/2
f 36/1/2 37/1/2 39/1/2
f 34/1/2 35/1/2 39/1/2
f 39/1/2 37/1/2 40/1/2
f 41/1/2 42/1/2 45/1/2
f 42/2/2 43/2/2 46/2/2
f 45/1/2 42/1/2 46/1/2
f 43/3/2 44/3/2 47/3/2
f 46/2/2 43/2/2 47/2/2
f 47/3/2 44/3/2 48/3/2
f 51/1/3 50/1/3 49/1/3
f 52/1/3 50/1/3 51/1/3
f 53/3/3 52/3/3 51/3/3
f 54/3/3 52/3/3 53/3/3
f 58/1/3 56/1/3 55/1/3
f 59/1/3 56/1/3 58/1/3
f 61/2/3 58/2/3 57/2/3
f 62/1/3 60/1/3 59/1/3
f 63/2/3 61/2/3 57/2/3
f 64/2/3 61/2/3 63/2/3
f 65/1/3 60/1/3 62/1/3
f 66/1/3 60/1/3 65/1/3
f 67/1/3 65/1/3 64/1/3
f 68/1/3 65/1/3 67/1/3
f 69/3/4 70/3/4 72/3/4
f 72/3/4 70/3/4 73/3/4
f 71/2/4 72/2/4 75/2/4
f 75/2/4 72/2/4 76/2/4
f 73/1/4 74/1/4 77/1/4
f 77/1/4 74/1/4 78/1/4
f 76/3/4 77/3/4 79/3/4
f 79/3/4 77/3/4 80/3/4
f 81/3/4 82/3/4 83/3/4
f 83/3/4 82/3/4 84/3/4
f 87/2/5 86/2/5 85/2/5
f 88/2/5 86/2/5 87/2/5
f 93/1/5 90/1/5 89/1/5
f 94/3/5 91/3/5 90/3/5
f 94/1/5 90/1/5 93/1/5
f 95/3/5 91/3/5 94/3/5
f 97/1/5 93/1/5 92/1/5
f 98/1/5 93/1/5 97/1/5
f 99/1/5 96/1/5 95/1/5
f 100/1/5 96/1/5 99/1/5
f 101/2/5 98/2/5 97/2/5
f 102/2/5 98/2/5 101/2/5
f 103/2/5 100/2/5 99/2/5
f 104/2/5 100/2/5 103/2/5
f 105/3/5 102/3/5 101/3/5
f 106/3/5 102/3/5 105/3/5
f 107/3/5 104/3/5 103/3/5
f 108/3/5 104/3/5 107/3/5
f 109/3/5 107/3/5 106/3/5
f 110/3/5 107/3/5 109/3/5
f 111/1/6 112/1/6 115/1/6
f 112/3/6 113/3/6 116/3/6
f 115/1/6 112/1/6 116/1/6
f 116/3/6 113/3/6 117/3/6
f 114/1/6 115/1/6 119/1/6
f 119/1/6 115/1/6 120/1/6
f 117/1/6 118/1/6 121/1/6
f 121/1/6 118/1/6 122/1/6
f 119/2/6 120/2/6 123/2/6
f 123/2/6 120/2/6 124/2/6
f 121/2/6 122/2/6 125/2/6
f 125/2/6 122/2/6 126/2/6
f 123/3/6 124/3/6 127/3/6
f 127/3/6 124/3/6 128/3/6
f 125/3/6 126/3/6 129/3/6
f 129/3/6 126/3/6 130/3/6
f 128/3/6 129/3/6 131/3/6
f 131/3/6 129/3/6 132/3/6
f 133/1/6 134/1/6 135/1/6
f 135/1/6 134/1/6 136/1/6
