# MagicaVoxel @ Ephtracy

# group
o 

# material
mtllib UpperBotArm.mtl
usemtl palette

# normals
vn -1 0 0
vn 1 0 0
vn 0 0 1
vn 0 0 -1
vn 0 -1 0
vn 0 1 0

# texcoords
vt 0.306641 0.5
vt 0.974609 0.5
vt 0.978516 0.5
vt 0.982422 0.5
vt 0.994141 0.5

# verts
v -0.6 2.2 0.2
v -0.6 2.2 0.1
v -0.6 2.2 0
v -0.6 2.3 0.3
v -0.6 2.3 0.2
v -0.6 2.4 0.3
v -0.6 2.4 0.1
v -0.6 2.4 0
v -0.5 1.3 0.2
v -0.5 1.3 -0.1
v -0.5 1.4 0.2
v -0.5 1.4 0.1
v -0.5 1.4 0
v -0.5 2.2 0.3
v -0.5 2.2 0.2
v -0.5 2.2 0.1
v -0.5 2.2 0
v -0.5 2.3 0.4
v -0.5 2.3 0.3
v -0.5 2.3 0.2
v -0.5 2.4 0.3
v -0.5 2.4 0.1
v -0.5 2.4 0
v -0.5 2.4 -0.1
v -0.5 2.5 0.4
v -0.5 2.5 0.3
v -0.5 2.5 0.1
v -0.5 2.5 0
v -0.5 2.6 0.3
v -0.5 2.6 0.1
v -0.4 1.5 0.3
v -0.4 1.5 0.2
v -0.4 1.5 -0.1
v -0.4 1.5 -0.2
v -0.4 2.1 0.3
v -0.4 2.1 0.2
v -0.4 2.2 0.4
v -0.4 2.2 0.3
v -0.4 2.2 0.2
v -0.4 2.2 -0.1
v -0.4 2.2 -0.2
v -0.4 2.3 0.4
v -0.4 2.3 0.3
v -0.4 2.4 0
v -0.4 2.4 -0.1
v -0.4 2.5 0
v -0.4 2.5 -0.1
v -0.3 2.1 0.4
v -0.3 2.1 0.3
v -0.3 2.2 0.4
v -0.3 2.2 0.3
v -0.2 1.3 0.2
v -0.2 1.3 -0.1
v -0.2 1.4 0.2
v -0.2 1.4 0.1
v -0.2 1.4 0
v -0.2 1.5 0.2
v -0.2 1.5 0.1
v -0.2 1.5 0
v -0.2 1.5 -0.1
v -0.4 1.3 0.2
v -0.4 1.3 -0.1
v -0.4 1.4 0.2
v -0.4 1.4 0.1
v -0.4 1.4 0
v -0.4 1.5 0.2
v -0.4 1.5 0.1
v -0.4 1.5 0
v -0.4 1.5 -0.1
v -0.3 2.4 0
v -0.3 2.4 -0.1
v -0.3 2.5 0
v -0.3 2.5 -0.1
v -0.2 1.5 0.3
v -0.2 1.5 0.2
v -0.2 1.5 -0.1
v -0.2 1.5 -0.2
v -0.2 2 0.3
v -0.2 2 0.2
v -0.2 2.1 0.3
v -0.2 2.1 0.2
v -0.2 2.2 -0.1
v -0.2 2.2 -0.2
v -0.2 2.3 0
v -0.2 2.3 -0.1
v -0.2 2.4 0.1
v -0.2 2.4 0
v -0.2 2.4 -0.1
v -0.2 2.5 0.3
v -0.2 2.5 0.1
v -0.2 2.5 0
v -0.2 2.6 0.3
v -0.2 2.6 0.1
v -0.0999999 1.3 0.2
v -0.0999999 1.3 -0.1
v -0.0999999 1.4 0.2
v -0.0999999 1.4 0.1
v -0.0999999 1.4 0
v -0.0999999 2.1 0.4
v -0.0999999 2.1 0.3
v -0.0999999 2.1 0.2
v -0.0999999 2.1 0.1
v -0.0999999 2.1 0
v -0.0999999 2.3 0.4
v -0.0999999 2.3 0.3
v -0.0999999 2.3 0
v -0.0999999 2.3 -0.1
v -0.0999999 2.4 0.4
v -0.0999999 2.4 0.3
v -0.0999999 2.4 0.2
v -0.0999999 2.4 0.1
v -0.0999999 2.5 0.4
v -0.0999999 2.5 0.1
v 5.96046e-08 2.1 0.2
v 5.96046e-08 2.1 0.1
v 5.96046e-08 2.1 0
v 5.96046e-08 2.3 0.1
v 5.96046e-08 2.3 0
v 5.96046e-08 2.4 0.2
v 5.96046e-08 2.4 0
v -0.5 2.3 0.4
v -0.5 2.5 0.4
v -0.4 2.2 0.4
v -0.4 2.3 0.4
v -0.4 2.4 0.4
v -0.3 2.1 0.4
v -0.3 2.2 0.4
v -0.3 2.3 0.4
v -0.2 2.2 0.4
v -0.2 2.3 0.4
v -0.0999999 2.1 0.4
v -0.0999999 2.3 0.4
v -0.0999999 2.4 0.4
v -0.0999999 2.5 0.4
v -0.6 2.3 0.3
v -0.6 2.4 0.3
v -0.5 2.2 0.3
v -0.5 2.3 0.3
v -0.5 2.4 0.3
v -0.5 2.5 0.3
v -0.5 2.6 0.3
v -0.4 1.5 0.3
v -0.4 2.1 0.3
v -0.4 2.2 0.3
v -0.4 2.3 0.3
v -0.3 1.5 0.3
v -0.3 2 0.3
v -0.3 2.1 0.3
v -0.3 2.2 0.3
v -0.2 1.5 0.3
v -0.2 2 0.3
v -0.2 2.1 0.3
v -0.2 2.5 0.3
v -0.2 2.6 0.3
v -0.6 2.2 0.2
v -0.6 2.3 0.2
v -0.5 1.3 0.2
v -0.5 1.4 0.2
v -0.5 2.2 0.2
v -0.5 2.3 0.2
v -0.4 1.3 0.2
v -0.4 1.4 0.2
v -0.4 1.5 0.2
v -0.4 2.1 0.2
v -0.4 2.2 0.2
v -0.2 1.3 0.2
v -0.2 1.4 0.2
v -0.2 1.5 0.2
v -0.2 2 0.2
v -0.2 2.1 0.2
v -0.0999999 1.3 0.2
v -0.0999999 1.4 0.2
v -0.0999999 2.1 0.2
v -0.0999999 2.4 0.2
v 5.96046e-08 2.1 0.2
v 5.96046e-08 2.4 0.2
v -0.5 2.5 0.1
v -0.5 2.6 0.1
v -0.2 2.4 0.1
v -0.2 2.5 0.1
v -0.2 2.6 0.1
v -0.0999999 2.4 0.1
v -0.0999999 2.5 0.1
v -0.6 2.2 0
v -0.6 2.4 0
v -0.5 2.2 0
v -0.5 2.4 0
v -0.5 2.5 0
v -0.4 2.4 0
v -0.4 2.5 0
v -0.3 2.4 0
v -0.3 2.5 0
v -0.2 2.3 0
v -0.2 2.4 0
v -0.2 2.5 0
v -0.0999999 2.1 0
v -0.0999999 2.3 0
v 5.96046e-08 2.1 0
v 5.96046e-08 2.3 0
v 5.96046e-08 2.4 0
v -0.5 1.3 -0.1
v -0.5 2.4 -0.1
v -0.4 1.3 -0.1
v -0.4 1.5 -0.1
v -0.4 2.2 -0.1
v -0.4 2.4 -0.1
v -0.4 2.5 -0.1
v -0.3 2.4 -0.1
v -0.3 2.5 -0.1
v -0.2 1.3 -0.1
v -0.2 1.5 -0.1
v -0.2 2.2 -0.1
v -0.2 2.3 -0.1
v -0.2 2.4 -0.1
v -0.0999999 1.3 -0.1
v -0.0999999 2.3 -0.1
v -0.4 1.5 -0.2
v -0.4 2.2 -0.2
v -0.2 1.5 -0.2
v -0.2 2.2 -0.2
v -0.5 1.3 0.2
v -0.4 1.3 0.2
v -0.2 1.3 0.2
v -0.0999999 1.3 0.2
v -0.5 1.3 -0.1
v -0.4 1.3 -0.1
v -0.2 1.3 -0.1
v -0.0999999 1.3 -0.1
v -0.4 1.5 0.3
v -0.3 1.5 0.3
v -0.2 1.5 0.3
v -0.4 1.5 0.2
v -0.3 1.5 0.2
v -0.2 1.5 0.2
v -0.4 1.5 0.1
v -0.2 1.5 0.1
v -0.4 1.5 0
v -0.2 1.5 0
v -0.4 1.5 -0.1
v -0.2 1.5 -0.1
v -0.4 1.5 -0.2
v -0.2 1.5 -0.2
v -0.3 2.1 0.4
v -0.0999999 2.1 0.4
v -0.3 2.1 0.3
v -0.2 2.1 0.3
v -0.0999999 2.1 0.3
v -0.2 2.1 0.2
v -0.0999999 2.1 0.2
v 5.96046e-08 2.1 0.2
v -0.0999999 2.1 0.1
v 5.96046e-08 2.1 0.1
v -0.0999999 2.1 0
v 5.96046e-08 2.1 0
v -0.4 2.2 0.4
v -0.3 2.2 0.4
v -0.5 2.2 0.3
v -0.4 2.2 0.3
v -0.3 2.2 0.3
v -0.6 2.2 0.2
v -0.5 2.2 0.2
v -0.4 2.2 0.2
v -0.6 2.2 0.1
v -0.5 2.2 0.1
v -0.6 2.2 0
v -0.5 2.2 0
v -0.5 2.3 0.4
v -0.4 2.3 0.4
v -0.6 2.3 0.3
v -0.5 2.3 0.3
v -0.4 2.3 0.3
v -0.6 2.3 0.2
v -0.5 2.3 0.2
v -0.4 2.2 -0.1
v -0.2 2.2 -0.1
v -0.4 2.2 -0.2
v -0.2 2.2 -0.2
v -0.2 2.3 0
v -0.0999999 2.3 0
v -0.2 2.3 -0.1
v -0.0999999 2.3 -0.1
v -0.6 2.4 0.3
v -0.5 2.4 0.3
v -0.0999999 2.4 0.2
v 5.96046e-08 2.4 0.2
v -0.6 2.4 0.1
v -0.5 2.4 0.1
v -0.2 2.4 0.1
v -0.0999999 2.4 0.1
v -0.6 2.4 0
v -0.5 2.4 0
v -0.4 2.4 0
v -0.3 2.4 0
v -0.2 2.4 0
v 5.96046e-08 2.4 0
v -0.5 2.4 -0.1
v -0.4 2.4 -0.1
v -0.3 2.4 -0.1
v -0.2 2.4 -0.1
v -0.5 2.5 0.4
v -0.0999999 2.5 0.4
v -0.5 2.5 0.3
v -0.2 2.5 0.3
v -0.5 2.5 0.1
v -0.2 2.5 0.1
v -0.0999999 2.5 0.1
v -0.5 2.5 0
v -0.4 2.5 0
v -0.3 2.5 0
v -0.2 2.5 0
v -0.4 2.5 -0.1
v -0.3 2.5 -0.1
v -0.5 2.6 0.3
v -0.2 2.6 0.3
v -0.5 2.6 0.1
v -0.2 2.6 0.1

# faces
f 5/3/1 2/3/1 1/3/1
f 6/3/1 5/3/1 4/3/1
f 7/4/1 3/4/1 2/4/1
f 7/3/1 5/3/1 6/3/1
f 7/3/1 2/3/1 5/3/1
f 8/4/1 3/4/1 7/4/1
f 11/4/1 10/4/1 9/4/1
f 12/4/1 10/4/1 11/4/1
f 13/4/1 10/4/1 12/4/1
f 15/2/1 12/2/1 11/2/1
f 16/3/1 13/3/1 12/3/1
f 16/2/1 12/2/1 15/2/1
f 17/4/1 10/4/1 13/4/1
f 17/3/1 13/3/1 16/3/1
f 19/3/1 15/3/1 14/3/1
f 20/3/1 15/3/1 19/3/1
f 21/2/1 19/2/1 18/2/1
f 23/4/1 10/4/1 17/4/1
f 24/4/1 10/4/1 23/4/1
f 25/2/1 21/2/1 18/2/1
f 26/3/1 22/3/1 21/3/1
f 26/2/1 21/2/1 25/2/1
f 27/2/1 23/2/1 22/2/1
f 27/3/1 22/3/1 26/3/1
f 28/2/1 23/2/1 27/2/1
f 29/2/1 27/2/1 26/2/1
f 30/2/1 27/2/1 29/2/1
f 35/2/1 32/2/1 31/2/1
f 36/2/1 32/2/1 35/2/1
f 38/3/1 36/3/1 35/3/1
f 39/3/1 36/3/1 38/3/1
f 40/4/1 34/4/1 33/4/1
f 41/4/1 34/4/1 40/4/1
f 42/2/1 38/2/1 37/2/1
f 43/2/1 38/2/1 42/2/1
f 46/4/1 45/4/1 44/4/1
f 47/4/1 45/4/1 46/4/1
f 50/4/1 49/4/1 48/4/1
f 51/4/1 49/4/1 50/4/1
f 54/4/1 53/4/1 52/4/1
f 55/4/1 53/4/1 54/4/1
f 56/4/1 53/4/1 55/4/1
f 57/2/1 55/2/1 54/2/1
f 58/3/1 56/3/1 55/3/1
f 58/2/1 55/2/1 57/2/1
f 59/4/1 53/4/1 56/4/1
f 59/3/1 56/3/1 58/3/1
f 60/4/1 53/4/1 59/4/1
f 61/4/2 62/4/2 63/4/2
f 63/4/2 62/4/2 64/4/2
f 64/4/2 62/4/2 65/4/2
f 63/2/2 64/2/2 66/2/2
f 64/3/2 65/3/2 67/3/2
f 66/2/2 64/2/2 67/2/2
f 65/4/2 62/4/2 68/4/2
f 67/3/2 65/3/2 68/3/2
f 68/4/2 62/4/2 69/4/2
f 70/4/2 71/4/2 72/4/2
f 72/4/2 71/4/2 73/4/2
f 74/4/2 75/4/2 78/4/2
f 78/4/2 75/4/2 79/4/2
f 78/3/2 79/3/2 80/3/2
f 80/3/2 79/3/2 81/3/2
f 76/4/2 77/4/2 82/4/2
f 82/4/2 77/4/2 83/4/2
f 84/4/2 85/4/2 87/4/2
f 87/4/2 85/4/2 88/4/2
f 86/2/2 87/2/2 90/2/2
f 90/2/2 87/2/2 91/2/2
f 89/2/2 90/2/2 92/2/2
f 92/2/2 90/2/2 93/2/2
f 94/4/2 95/4/2 96/4/2
f 96/4/2 95/4/2 97/4/2
f 97/4/2 95/4/2 98/4/2
f 96/2/2 97/2/2 101/2/2
f 97/3/2 98/3/2 102/3/2
f 101/2/2 97/2/2 102/2/2
f 98/4/2 95/4/2 103/4/2
f 102/3/2 98/3/2 103/3/2
f 99/4/2 100/4/2 104/4/2
f 100/2/2 101/2/2 105/2/2
f 104/4/2 100/4/2 105/4/2
f 103/4/2 95/4/2 106/4/2
f 106/4/2 95/4/2 107/4/2
f 104/3/2 105/3/2 108/3/2
f 105/2/2 101/2/2 109/2/2
f 108/3/2 105/3/2 109/3/2
f 109/2/2 101/2/2 110/2/2
f 108/2/2 109/2/2 112/2/2
f 110/2/2 111/2/2 112/2/2
f 109/2/2 110/2/2 112/2/2
f 112/2/2 111/2/2 113/2/2
f 114/2/2 115/2/2 117/2/2
f 115/3/2 116/3/2 117/3/2
f 117/3/2 116/3/2 118/3/2
f 114/2/2 117/2/2 119/2/2
f 117/2/2 118/2/2 119/2/2
f 119/2/2 118/2/2 120/2/2
f 124/2/3 122/2/3 121/2/3
f 125/2/3 122/2/3 124/2/3
f 127/2/3 124/2/3 123/2/3
f 128/3/3 125/3/3 124/3/3
f 128/2/3 124/2/3 127/2/3
f 129/4/3 127/4/3 126/4/3
f 129/3/3 128/3/3 127/3/3
f 130/3/3 125/3/3 128/3/3
f 130/3/3 128/3/3 129/3/3
f 131/4/3 129/4/3 126/4/3
f 131/4/3 130/4/3 129/4/3
f 132/3/3 125/3/3 130/3/3
f 132/4/3 130/4/3 131/4/3
f 133/2/3 122/2/3 125/2/3
f 133/3/3 125/3/3 132/3/3
f 134/2/3 122/2/3 133/2/3
f 138/3/3 136/3/3 135/3/3
f 139/3/3 136/3/3 138/3/3
f 144/3/3 138/3/3 137/3/3
f 145/3/3 138/3/3 144/3/3
f 146/2/3 143/2/3 142/2/3
f 147/2/3 143/2/3 146/2/3
f 148/3/3 144/3/3 143/3/3
f 148/2/3 143/2/3 147/2/3
f 149/3/3 144/3/3 148/3/3
f 150/4/3 147/4/3 146/4/3
f 151/3/3 148/3/3 147/3/3
f 151/4/3 147/4/3 150/4/3
f 152/3/3 148/3/3 151/3/3
f 153/2/3 141/2/3 140/2/3
f 154/2/3 141/2/3 153/2/3
f 159/3/3 156/3/3 155/3/3
f 160/3/3 156/3/3 159/3/3
f 161/4/3 158/4/3 157/4/3
f 162/2/3 159/2/3 158/2/3
f 162/4/3 158/4/3 161/4/3
f 163/2/3 159/2/3 162/2/3
f 164/2/3 159/2/3 163/2/3
f 165/2/3 159/2/3 164/2/3
f 171/4/3 167/4/3 166/4/3
f 172/2/3 170/2/3 169/2/3
f 172/4/3 167/4/3 171/4/3
f 172/2/3 168/2/3 167/2/3
f 172/2/3 169/2/3 168/2/3
f 173/2/3 170/2/3 172/2/3
f 175/2/3 174/2/3 173/2/3
f 176/2/3 174/2/3 175/2/3
f 177/2/4 178/2/4 180/2/4
f 180/2/4 178/2/4 181/2/4
f 179/2/4 180/2/4 182/2/4
f 182/2/4 180/2/4 183/2/4
f 184/4/4 185/4/4 186/4/4
f 186/4/4 185/4/4 187/4/4
f 187/2/4 188/2/4 189/2/4
f 189/2/4 188/2/4 190/2/4
f 191/2/4 192/2/4 194/2/4
f 194/2/4 192/2/4 195/2/4
f 193/2/4 194/2/4 197/2/4
f 196/3/4 197/3/4 198/3/4
f 197/2/4 194/2/4 199/2/4
f 198/3/4 197/3/4 199/3/4
f 199/2/4 194/2/4 200/2/4
f 201/4/4 202/4/4 203/4/4
f 203/4/4 202/4/4 204/4/4
f 204/4/4 202/4/4 205/4/4
f 205/4/4 202/4/4 206/4/4
f 206/4/4 207/4/4 208/4/4
f 205/4/4 206/4/4 208/4/4
f 208/4/4 207/4/4 209/4/4
f 205/4/4 208/4/4 212/4/4
f 212/4/4 208/4/4 213/4/4
f 213/4/4 208/4/4 214/4/4
f 210/4/4 211/4/4 215/4/4
f 211/4/4 212/4/4 215/4/4
f 212/4/4 213/4/4 215/4/4
f 215/4/4 213/4/4 216/4/4
f 217/4/4 218/4/4 219/4/4
f 219/4/4 218/4/4 220/4/4
f 225/4/5 222/4/5 221/4/5
f 226/4/5 222/4/5 225/4/5
f 227/4/5 224/4/5 223/4/5
f 228/4/5 224/4/5 227/4/5
f 232/2/5 230/2/5 229/2/5
f 233/4/5 231/4/5 230/4/5
f 233/2/5 230/2/5 232/2/5
f 234/4/5 231/4/5 233/4/5
f 235/4/5 233/4/5 232/4/5
f 235/4/5 234/4/5 233/4/5
f 236/4/5 234/4/5 235/4/5
f 237/4/5 236/4/5 235/4/5
f 238/4/5 236/4/5 237/4/5
f 239/4/5 238/4/5 237/4/5
f 240/4/5 238/4/5 239/4/5
f 241/4/5 240/4/5 239/4/5
f 242/4/5 240/4/5 241/4/5
f 245/4/5 244/4/5 243/4/5
f 246/4/5 244/4/5 245/4/5
f 247/4/5 244/4/5 246/4/5
f 248/2/5 247/2/5 246/2/5
f 249/2/5 247/2/5 248/2/5
f 251/2/5 250/2/5 249/2/5
f 252/2/5 250/2/5 251/2/5
f 253/3/5 252/3/5 251/3/5
f 254/3/5 252/3/5 253/3/5
f 258/2/5 256/2/5 255/2/5
f 259/2/5 256/2/5 258/2/5
f 261/3/5 258/3/5 257/3/5
f 262/3/5 258/3/5 261/3/5
f 263/3/5 261/3/5 260/3/5
f 264/3/5 261/3/5 263/3/5
f 265/4/5 264/4/5 263/4/5
f 266/4/5 264/4/5 265/4/5
f 270/2/5 268/2/5 267/2/5
f 271/2/5 268/2/5 270/2/5
f 272/3/5 270/3/5 269/3/5
f 273/3/5 270/3/5 272/3/5
f 274/4/6 275/4/6 276/4/6
f 276/4/6 275/4/6 277/4/6
f 278/4/6 279/4/6 280/4/6
f 280/4/6 279/4/6 281/4/6
f 282/3/6 283/3/6 286/3/6
f 286/3/6 283/3/6 287/3/6
f 284/2/6 285/2/6 289/2/6
f 286/4/6 287/4/6 290/4/6
f 290/4/6 287/4/6 291/4/6
f 288/2/6 289/2/6 294/2/6
f 289/2/6 285/2/6 295/2/6
f 294/2/6 289/2/6 295/2/6
f 291/4/6 292/4/6 296/4/6
f 296/4/6 292/4/6 297/4/6
f 293/4/6 294/4/6 298/4/6
f 298/4/6 294/4/6 299/4/6
f 300/2/6 301/2/6 302/2/6
f 302/2/6 301/2/6 303/2/6
f 303/2/6 301/2/6 305/2/6
f 305/2/6 301/2/6 306/2/6
f 304/2/6 305/2/6 307/2/6
f 307/2/6 305/2/6 308/2/6
f 308/2/6 305/2/6 309/2/6
f 309/2/6 305/2/6 310/2/6
f 308/4/6 309/4/6 311/4/6
f 311/4/6 309/4/6 312/4/6
f 313/2/6 314/2/6 315/2/6
f 315/2/6 314/2/6 316/2/6
